<svg width="95" height="24" viewBox="0 0 95 24" fill="none" xmlns="http://www.w3.org/2000/svg">
<g clip-path="url(#clip0_2216_988)">
<path d="M16.0731 23.6136L20.6446 5.1882L21.8697 24H26.9989L25.4354 0.00919893H17.4263L13.504 16.1349L9.57257 0.00919893H1.56343L0 24H5.12914L6.35429 5.1882L10.9257 23.6136H16.0731ZM84.6171 9.09774H87.7074L88.7771 7.11997L87.7166 5.179H84.6171V9.09774ZM75.776 9.09774H78.4823V16.8708C78.4823 20.9552 79.5063 24 83.9863 24C85.6046 24 86.9486 23.5861 87.7074 23.2825V18.9222C85.0286 19.4281 83.7211 19.5937 83.7211 16.0061V0H78.4823V5.1882H76.1874L75.776 9.09774ZM51.1634 16.1441C51.52 20.67 58.5234 19.8789 61.5497 18.9222L62.2994 22.8317C55.2137 25.5546 45.76 23.7792 45.76 14.5067C45.76 2.15255 63.3143 0.809506 63.3143 13.8628C63.3143 14.8471 63.2046 15.721 63.1314 16.1349H51.1634V16.1441ZM58.0023 12.1978C58.0023 7.09237 51.1543 7.01878 51.2 12.1978H58.0023ZM69.2114 10.1556C69.2114 7.80069 73.5634 8.5642 74.88 9.09774L75.2823 5.1882C70.8754 3.81755 64.0366 4.83864 64.0457 10.68C63.9543 16.4385 72.384 15.6474 72.384 18.3887C72.384 21.2771 65.7829 19.7961 64.3474 18.9222L63.5977 22.8409C68.4983 25.0211 77.8148 24.5335 77.568 17.9931C77.4857 11.6366 69.2114 12.7589 69.2114 10.1556Z" fill="#0056A4"/>
<path d="M32.7042 16.1441C33.0608 20.67 40.0642 19.8789 43.0905 18.9222L43.8402 22.8317C36.7545 25.5546 27.3008 23.7792 27.3008 14.5067C27.3008 2.15253 44.8551 0.809486 44.8551 13.8628C44.8551 14.8471 44.7453 15.7209 44.6722 16.1349H32.7042V16.1441ZM39.5431 12.1978C39.5431 7.09235 32.6951 7.01876 32.7408 12.1978H39.5431Z" fill="#E40137"/>
<path d="M90.5052 0L94.4001 7.11997L90.5052 14.2859H86.6104L90.5052 7.11997L86.6104 0H90.5052Z" fill="#E40137"/>
</g>
<defs>
<clipPath id="clip0_2216_988">
<rect width="94.4" height="24" fill="white"/>
</clipPath>
</defs>
</svg>
